<?xml version="1.0" encoding="UTF-8"?>
<svg id="Camada_1" xmlns="http://www.w3.org/2000/svg" version="1.1" viewBox="0 0 158.85 31">
  <!-- Generator: Adobe Illustrator 30.2.1, SVG Export Plug-In . SVG Version: 2.1.1 Build 1)  -->
  <defs>
    <style>
      .st0 {
        fill: #0d71b9;
      }

      .st1 {
        fill: #fff;
      }
    </style>
  </defs>
  <g>
    <path class="st1" d="M103.36,15.94c0,2.58.07,3.71.39,4.02.28.28.74.4,2.11.4.93,0,1.7-.02,2.13-.53.23-.28.4-.72.46-1.05.02-.14.05-.23.16-.23.09,0,.11.07.11.26s-.12,1.25-.26,1.76c-.12.4-.18.48-1.11.48-1.26,0-2.18-.04-2.92-.05-.74-.03-1.28-.05-1.79-.05-.07,0-.37.02-.72.02-.35.02-.74.03-1,.03-.19,0-.28-.03-.28-.14,0-.05.04-.11.14-.11.16,0,.37-.04.53-.07.35-.07.44-.46.51-.97.09-.74.09-2.13.09-3.81v-3.09c0-2.74,0-3.23-.04-3.8-.04-.6-.17-.88-.76-1-.14-.04-.44-.05-.6-.05-.07,0-.14-.03-.14-.11,0-.11.09-.14.28-.14.79,0,1.9.05,1.99.05s1.37-.05,1.9-.05c.19,0,.28.04.28.14,0,.07-.07.11-.14.11-.12,0-.37.02-.58.05-.51.09-.65.39-.69,1-.04.56-.04,1.05-.04,3.8v3.13Z"/>
    <path class="st1" d="M113.29,16.66c0,1.44,0,2.62.07,3.23.05.44.11.72.56.79.23.04.56.07.7.07.09,0,.12.07.12.12,0,.07-.07.12-.25.12-.86,0-1.86-.05-1.93-.05-.09,0-1.05.05-1.53.05-.16,0-.25-.03-.25-.12,0-.05.04-.12.12-.12.14,0,.33-.04.47-.07.3-.07.35-.35.4-.79.07-.62.09-1.79.09-3.23v-2.64c0-2.32,0-2.74-.04-3.22-.04-.51-.16-.74-.49-.81-.18-.04-.37-.05-.47-.05-.07,0-.12-.07-.12-.12,0-.09.07-.12.25-.12.51,0,1.48.04,1.56.04.07,0,1.07-.04,1.55-.04.18,0,.25.04.25.12,0,.05-.07.12-.12.12-.1,0-.21,0-.39.04-.42.09-.51.3-.54.83-.02.47-.02.9-.02,3.22v2.64Z"/>
    <path class="st1" d="M119.02,18.97c.04,1.23.18,1.6.6,1.7.28.07.63.09.77.09.07,0,.12.05.12.12,0,.09-.11.12-.28.12-.88,0-1.49-.05-1.63-.05s-.79.05-1.49.05c-.16,0-.25-.02-.25-.12,0-.07.05-.12.12-.12.12,0,.4-.02.63-.09.39-.1.44-.51.44-1.86v-8.56c0-.6.09-.76.21-.76.18,0,.44.3.6.46.25.25,2.5,2.64,4.89,5.1,1.53,1.58,3.18,3.36,3.66,3.85l-.16-7.49c-.02-.97-.11-1.3-.58-1.39-.28-.05-.63-.07-.76-.07-.11,0-.12-.09-.12-.14,0-.09.12-.11.3-.11.7,0,1.44.04,1.62.04s.68-.04,1.32-.04c.16,0,.28.02.28.11,0,.05-.07.14-.18.14-.07,0-.19,0-.37.04-.51.11-.54.4-.54,1.3l-.04,8.75c0,.98-.02,1.07-.12,1.07-.16,0-.32-.12-1.18-.91-.16-.14-2.39-2.34-4.03-4.04-1.79-1.88-3.53-3.71-4.01-4.24l.17,7.05Z"/>
    <path class="st1" d="M132.66,14.03c0-2.32,0-2.74-.03-3.22-.04-.51-.12-.76-.63-.83-.12-.02-.39-.04-.53-.04-.05,0-.12-.07-.12-.12,0-.09.07-.12.25-.12.7,0,1.71.04,1.79.04.11,0,3.34.02,3.69,0,.3-.02.58-.07.7-.09.07-.02.14-.07.21-.07.05,0,.07.07.07.14,0,.11-.09.28-.12.7-.02.14-.05.81-.09.98-.02.07-.07.16-.14.16-.09,0-.12-.07-.12-.19,0-.11-.02-.35-.09-.53-.11-.25-.26-.35-1.11-.46-.26-.04-2.06-.05-2.23-.05-.07,0-.09.05-.09.16v4.06c0,.11,0,.16.09.16.19,0,2.23,0,2.58-.04.37-.04.6-.05.76-.21.1-.11.18-.19.23-.19s.09.04.09.12-.09.33-.12.83c-.04.3-.07.86-.07.97,0,.12-.04.28-.14.28-.07,0-.11-.05-.11-.14,0-.14,0-.3-.07-.49-.05-.21-.19-.39-.79-.46-.42-.05-2.07-.07-2.34-.07-.09,0-.11.05-.11.11v1.25c0,.51-.02,2.25,0,2.55.04,1,.32,1.19,1.85,1.19.4,0,1.14,0,1.55-.16.4-.18.62-.44.7-1.04.03-.18.07-.23.16-.23s.11.12.11.23-.12,1.12-.21,1.44c-.1.39-.26.39-.86.39-1.16,0-2.06-.04-2.69-.05-.65-.04-1.05-.04-1.28-.04-.04,0-.33,0-.67.02-.3.02-.65.03-.9.03-.16,0-.25-.03-.25-.12,0-.05.04-.12.12-.12.14,0,.33-.05.47-.07.3-.05.33-.35.4-.79.09-.62.09-1.79.09-3.23v-2.64Z"/>
    <path class="st1" d="M142.35,14.03c0-2.32,0-2.74-.04-3.22-.04-.51-.12-.76-.63-.83-.12-.02-.39-.04-.53-.04-.05,0-.12-.07-.12-.12,0-.09.07-.12.25-.12.7,0,1.74.04,1.83.04.16,0,1.46-.04,1.93-.04.98,0,2.07.09,2.88.65.39.28,1.07,1,1.07,2.04,0,1.11-.46,2.18-1.9,3.41,1.26,1.58,2.34,2.93,3.23,3.87.83.84,1.34.98,1.72,1.04.3.05.46.05.54.05s.14.07.14.12c0,.09-.09.12-.37.12h-.97c-.88,0-1.27-.09-1.65-.3-.67-.35-1.23-1.07-2.11-2.2-.65-.81-1.33-1.78-1.67-2.18-.07-.07-.11-.09-.21-.09l-1.97-.04c-.07,0-.1.04-.1.12v.35c0,1.44,0,2.6.07,3.22.05.44.14.72.62.79.21.04.54.07.68.07.11,0,.12.07.12.12,0,.07-.07.12-.25.12-.84,0-1.83-.05-1.9-.05-.02,0-1.05.05-1.53.05-.16,0-.25-.03-.25-.12,0-.05.04-.12.12-.12.14,0,.33-.04.47-.07.3-.07.33-.35.4-.79.09-.62.09-1.79.09-3.23v-2.64ZM143.68,15.29c0,.09.04.14.1.19.23.12,1.02.23,1.7.23.37,0,.79-.02,1.16-.26.53-.35.93-1.14.93-2.29,0-1.86-1.02-2.93-2.67-2.93-.46,0-.95.05-1.11.09-.07.04-.12.09-.12.18v4.8Z"/>
    <path class="st1" d="M152.7,20.79c-.21-.11-.23-.16-.23-.56,0-.74.07-1.34.09-1.58,0-.16.04-.25.12-.25s.14.05.14.18,0,.33.05.54c.25,1.09,1.41,1.48,2.44,1.48,1.53,0,2.32-.86,2.32-1.99s-.58-1.58-1.95-2.6l-.7-.53c-1.67-1.25-2.21-2.16-2.21-3.2,0-1.76,1.39-2.81,3.43-2.81.62,0,1.23.09,1.6.18.3.07.42.07.55.07s.16.02.16.11c0,.07-.07.56-.07,1.58,0,.23-.02.33-.12.33s-.12-.07-.14-.19c-.02-.18-.14-.58-.23-.74-.11-.18-.62-.74-2-.74-1.12,0-2.06.56-2.06,1.62,0,.95.47,1.49,2,2.53l.44.3c1.88,1.28,2.53,2.32,2.53,3.6,0,.88-.33,1.83-1.44,2.55-.65.42-1.62.53-2.46.53-.72,0-1.62-.11-2.25-.4Z"/>
  </g>
  <rect class="st1" width="95" height="31"/>
  <g>
    <path class="st0" d="M23.26,18.75c.07.63.19,1.62.95,1.86.51.16.97.16,1.14.16.09,0,.14.02.14.09,0,.11-.16.16-.37.16-.39,0-2.28-.02-2.94-.07-.4-.04-.49-.09-.49-.18,0-.07.04-.1.12-.12.09-.02.11-.32.07-.63l-.84-9.12h-.05l-4.31,9.14c-.37.77-.42.93-.58.93-.12,0-.21-.18-.54-.81-.46-.86-1.97-3.9-2.06-4.08-.16-.32-2.13-4.53-2.32-5.01h-.07l-.7,8.15c-.02.28-.02.6-.02.9,0,.26.19.49.46.54.3.07.56.09.67.09.07,0,.14.04.14.09,0,.12-.11.16-.32.16-.65,0-1.49-.05-1.63-.05-.16,0-1,.05-1.48.05-.18,0-.3-.04-.3-.16,0-.05.09-.09.18-.09.14,0,.26,0,.53-.05.58-.11.63-.79.7-1.46l1.27-11.46c.02-.19.09-.32.19-.32s.18.07.26.26l5.38,11.05,5.17-11.04c.07-.16.14-.28.26-.28s.18.14.21.47l1.18,10.81Z"/>
    <path class="st0" d="M29.64,16.66c0,1.44,0,2.62.07,3.23.05.44.11.72.56.79.23.04.56.07.7.07.09,0,.12.07.12.12,0,.07-.07.12-.25.12-.86,0-1.86-.05-1.93-.05-.09,0-1.05.05-1.53.05-.16,0-.25-.04-.25-.12,0-.05.04-.12.12-.12.14,0,.33-.04.47-.07.3-.07.35-.35.4-.79.07-.61.09-1.79.09-3.23v-2.64c0-2.32,0-2.74-.03-3.22-.04-.51-.16-.74-.49-.81-.18-.04-.37-.05-.47-.05-.07,0-.12-.07-.12-.12,0-.09.07-.12.25-.12.51,0,1.48.03,1.56.03.07,0,1.07-.03,1.55-.03.18,0,.25.03.25.12,0,.05-.07.12-.12.12-.11,0-.21,0-.39.04-.42.09-.51.3-.54.83-.02.47-.02.9-.02,3.22v2.64Z"/>
    <path class="st0" d="M36.13,16.7c0,2.2.04,3.09.32,3.36.25.25.84.35,2.06.35.81,0,1.49-.02,1.86-.46.19-.23.32-.54.37-.84.02-.11.07-.19.16-.19.07,0,.11.07.11.23s-.11,1.05-.23,1.49c-.1.35-.16.4-.98.4-1.11,0-1.97-.02-2.69-.05-.7-.02-1.23-.04-1.69-.04-.07,0-.33,0-.63.02-.32.02-.65.04-.9.04-.16,0-.25-.04-.25-.12,0-.05.04-.12.12-.12.14,0,.33-.04.48-.07.3-.07.33-.35.4-.79.09-.61.09-1.79.09-3.23v-2.64c0-2.32,0-2.74-.04-3.22-.04-.51-.12-.76-.63-.83-.12-.02-.39-.04-.53-.04-.05,0-.12-.07-.12-.12,0-.09.07-.12.25-.12.7,0,1.67.03,1.76.03.07,0,1.23-.03,1.7-.03.16,0,.25.03.25.12,0,.05-.07.11-.12.11-.1,0-.33.02-.51.04-.46.09-.55.32-.58.84-.02.47-.02.9-.02,3.22v2.67Z"/>
    <path class="st0" d="M44.13,14.03c0-2.32,0-2.74-.04-3.22-.04-.51-.12-.76-.63-.83-.12-.02-.39-.04-.53-.04-.05,0-.12-.07-.12-.12,0-.09.07-.12.25-.12.7,0,1.65.03,1.74.03.14,0,1.07-.03,1.53-.03.18,0,.25.03.25.12,0,.05-.05.12-.12.12-.11,0-.19,0-.39.04-.4.09-.51.3-.54.83-.04.47-.04.9-.04,3.22v.9h.07c.25-.28,3-3.01,3.58-3.6.44-.44.84-.83.84-1.07,0-.19-.07-.28-.19-.3-.09-.02-.14-.09-.14-.14,0-.07.07-.11.18-.11.32,0,.79.03,1.16.03.09,0,1.11-.03,1.49-.03.16,0,.23.03.23.11s-.04.12-.16.12c-.23,0-.56.09-.86.21-.63.28-.93.62-1.62,1.27-.39.35-3.02,2.88-3.36,3.25.4.44,3.62,3.66,4.25,4.24,1.3,1.16,1.48,1.35,2.21,1.65.4.16.84.21.95.21s.19.05.19.12-.07.12-.33.12h-.79c-.44,0-.72,0-1.07-.04-.81-.07-1.21-.4-1.88-.91-.7-.55-3.95-3.97-4.69-4.85h-.07v1.46c0,1.44,0,2.62.07,3.23.05.44.12.72.6.79.21.04.46.07.6.07.09,0,.12.07.12.12,0,.07-.07.12-.25.12-.76,0-1.69-.05-1.81-.05s-1.05.05-1.53.05c-.16,0-.25-.04-.25-.12,0-.05.04-.12.12-.12.14,0,.33-.04.48-.07.3-.07.33-.35.4-.79.09-.61.09-1.79.09-3.23v-2.64Z"/>
    <path class="st0" d="M57.24,16.66c0,1.44,0,2.62.07,3.23.05.44.11.72.56.79.23.04.56.07.7.07.09,0,.12.07.12.12,0,.07-.07.12-.25.12-.86,0-1.86-.05-1.93-.05-.09,0-1.05.05-1.53.05-.16,0-.25-.04-.25-.12,0-.05.04-.12.12-.12.14,0,.33-.04.47-.07.3-.07.35-.35.4-.79.07-.61.09-1.79.09-3.23v-2.64c0-2.32,0-2.74-.04-3.22-.04-.51-.16-.74-.49-.81-.18-.04-.37-.05-.47-.05-.07,0-.12-.07-.12-.12,0-.09.07-.12.25-.12.51,0,1.48.03,1.56.03.07,0,1.07-.03,1.55-.03.18,0,.25.03.25.12,0,.05-.07.12-.12.12-.11,0-.21,0-.39.04-.42.09-.51.3-.54.83-.02.47-.02.9-.02,3.22v2.64Z"/>
    <path class="st0" d="M62.97,18.96c.04,1.23.18,1.6.6,1.71.28.07.63.09.77.09.07,0,.12.05.12.12,0,.09-.11.12-.28.12-.88,0-1.49-.05-1.63-.05s-.79.05-1.49.05c-.16,0-.25-.02-.25-.12,0-.07.05-.12.12-.12.12,0,.4-.02.63-.09.39-.11.44-.51.44-1.86v-8.56c0-.6.09-.76.21-.76.18,0,.44.3.6.46.25.25,2.5,2.64,4.89,5.1,1.53,1.58,3.18,3.36,3.66,3.85l-.16-7.49c-.02-.97-.1-1.3-.58-1.39-.28-.05-.63-.07-.76-.07-.1,0-.12-.09-.12-.14,0-.09.12-.11.3-.11.7,0,1.44.03,1.62.03s.69-.03,1.32-.03c.16,0,.28.02.28.11,0,.05-.07.14-.18.14-.07,0-.19,0-.37.04-.51.1-.54.4-.54,1.3l-.04,8.75c0,.98-.02,1.07-.12,1.07-.16,0-.32-.12-1.18-.91-.16-.14-2.39-2.34-4.02-4.04-1.79-1.88-3.53-3.71-4.01-4.24l.18,7.05Z"/>
    <path class="st0" d="M83.99,17.19c0-1.21-.04-1.39-.67-1.51-.12-.02-.39-.04-.53-.04-.05,0-.12-.07-.12-.12,0-.11.07-.12.25-.12.7,0,1.74.04,1.83.04.07,0,1.04-.04,1.51-.04.17,0,.25.02.25.12,0,.05-.07.12-.12.12-.11,0-.21,0-.39.04-.42.07-.54.3-.58.83-.02.47-.02.91-.02,1.55v1.67c0,.68-.02.7-.21.81-.98.51-2.39.67-3.29.67-1.18,0-3.37-.14-5.1-1.6-.95-.79-1.85-2.39-1.85-4.25,0-2.39,1.21-4.08,2.58-4.9,1.39-.84,2.94-.95,4.11-.95.98,0,2.07.18,2.37.25.32.07.86.16,1.25.16.16,0,.19.07.19.14,0,.21-.09.62-.09,2.11,0,.25-.07.32-.18.32-.09,0-.11-.09-.11-.23-.02-.19-.1-.63-.35-.98-.39-.56-1.56-1.16-3.57-1.16-.93,0-2.06.07-3.23.97-.9.68-1.53,2.02-1.53,3.76,0,2.11,1.09,3.62,1.63,4.13,1.23,1.14,2.53,1.56,3.95,1.56.54,0,1.27-.05,1.67-.28.19-.1.32-.18.32-.46v-2.58Z"/>
  </g>
</svg>